# File created by Blade
# Date/Time:  Wed Jan 21 18:40:15 2015
#---------------------------------------------------------
:version 1.10
:name HOM
:units
  mass 1.0
  length 1.000000
  angle deg
:documentation
     Acclaim Skeleton File
:root
   axis xyz
   order TX TY TZ RX RY RZ
   position 0.000000 0.000000 0.000000
   orientation 0 0 0
:bonedata
   begin
      id 1
      name RightUpLeg_dum
      direction -1.000000 0.000000 0.000000
      length 3.693983
      axis 0.0 0.0 0.0 xyz
   end
   begin
      id 2
      name LeftUpLeg_dum
      direction 1.000000 0.000000 0.000000
      length 3.693983
      axis 0.0 0.0 0.0 xyz
   end
   begin
      id 3
      name Spine_dum
      direction 0.000000 1.000000 0.000000
      length 2.392956
      axis 0.0 0.0 0.0 xyz
   end
   begin
      id 4
      name RightUpLeg
      direction 0.000000 -1.000000 0.000000
      length 15.795667
      axis 0.0 0.0 0.0 xyz
      dof rx ry rz
   end
   begin
      id 5
      name RightLeg
      direction 0.000000 -1.000000 0.000000
      length 14.766989
      axis 0.0 0.0 0.0 xyz
      dof rx ry rz
   end
   begin
      id 6
      name RightFoot
      direction 0.000000 -0.258819 0.965926
      length 4.962790
      axis 15.0 0.0 0.0 xyz
      dof rx ry rz
   end
   begin
      id 7
      name RightToeBase
      direction 0.000000 0.000000 1.000000
      length 2.952750
      axis 0.0 0.0 0.0 xyz
      dof rx ry rz
   end
   begin
      id 8
      name LeftUpLeg
      direction 0.000000 -1.000000 0.000000
      length 15.795667
      axis 0.0 0.0 0.0 xyz
      dof rx ry rz
   end
   begin
      id 9
      name LeftLeg
      direction 0.000000 -1.000000 0.000000
      length 14.766989
      axis 0.0 0.0 0.0 xyz
      dof rx ry rz
   end
   begin
      id 10
      name LeftFoot
      direction 0.000000 -0.258819 0.965926
      length 4.962790
      axis 15.0 0.0 0.0 xyz
      dof rx ry rz
   end
   begin
      id 11
      name LeftToeBase
      direction 0.000000 0.000000 1.000000
      length 2.952750
      axis 0.0 0.0 0.0 xyz
      dof rx ry rz
   end
   begin
      id 12
      name Spine
      direction 0.000000 1.000000 0.000000
      length 0.000000
      axis 0.0 0.0 0.0 xyz
      dof rx ry rz
   end
   begin
      id 13
      name Spine_dum1
      direction 0.000000 1.000000 0.000000
      length 13.207411
      axis 0.0 0.0 0.0 xyz
   end
   begin
      id 14
      name Spine_dum2
      direction 0.000000 1.000000 0.000000
      length 13.207411
      axis 0.0 0.0 0.0 xyz
   end
   begin
      id 15
      name Spine_dum3
      direction 0.000000 1.000000 0.000000
      length 19.250100
      axis 0.0 0.0 0.0 xyz
   end
   begin
      id 16
      name RightShoulder
      direction -1.000000 0.000000 0.000000
      length 8.140465
      axis 0.0 0.0 90.0 xyz
      dof rx ry rz
   end
   begin
      id 17
      name RightArm
      direction -1.000000 0.000000 0.000000
      length 10.649840
      axis 0.0 0.0 90.0 xyz
      dof rx ry rz
   end
   begin
      id 18
      name RightForeArm
      direction -1.000000 0.000000 0.000000
      length 8.304624
      axis 0.0 0.0 90.0 xyz
      dof ry rz rx
   end
   begin
      id 19
      name RightHand
      direction -1.000000 0.000000 0.000000
      length 0.000000
      axis 0.0 0.0 90.0 xyz
      dof rx ry rz
   end
   begin
      id 20
      name RightHand_dum1
      direction -1.000000 0.000000 0.000000
      length 3.937000
      axis 0.0 0.0 90.0 xyz
   end
   begin
      id 21
      name RightHand_dum2
      direction 0.000000 0.000000 0.000000
      length 0.000000
      axis 0.0 0.0 90.0 xyz
   end
   begin
      id 22
      name RightHandThumb1
      direction 0.000000 0.000000 1.000000
      length 3.937000
      axis 0.0 0.0 90.0 xyz
      dof rx rz ry
   end
   begin
      id 23
      name LeftShoulder
      direction 1.000000 0.000000 0.000000
      length 8.140465
      axis 0.0 0.0 -90.0 xyz
      dof rx ry rz
   end
   begin
      id 24
      name LeftArm
      direction 1.000000 0.000000 0.000000
      length 10.649840
      axis 0.0 0.0 -90.0 xyz
      dof rx ry rz
   end
   begin
      id 25
      name LeftForeArm
      direction 1.000000 0.000000 0.000000
      length 8.304624
      axis 0.0 0.0 -90.0 xyz
      dof ry rz rx
   end
   begin
      id 26
      name LeftHand
      direction 1.000000 0.000000 0.000000
      length 0.000000
      axis 0.0 0.0 -90.0 xyz
      dof rx ry rz
   end
   begin
      id 27
      name LeftHand_dum1
      direction 1.000000 0.000000 0.000000
      length 3.937000
      axis 0.0 0.0 -90.0 xyz
   end
   begin
      id 28
      name LeftHand_dum2
      direction 0.000000 0.000000 0.000000
      length 0.000000
      axis 0.0 0.0 -90.0 xyz
   end
   begin
      id 29
      name LeftHandThumb1
      direction 0.000000 0.000000 1.000000
      length 3.937000
      axis 0.0 0.0 -90.0 xyz
      dof rx rz ry
   end
   begin
      id 30
      name Head
      direction 0.000000 1.000000 0.000000
      length 4.527550
      axis 0.0 0.0 0.0 xyz
      dof rx ry rz
   end
:hierarchy
   begin
      root RightUpLeg_dum LeftUpLeg_dum Spine_dum
      RightUpLeg_dum RightUpLeg
      LeftUpLeg_dum LeftUpLeg
      Spine_dum Spine
      RightUpLeg RightLeg
      RightLeg RightFoot
      RightFoot RightToeBase
      LeftUpLeg LeftLeg
      LeftLeg LeftFoot
      LeftFoot LeftToeBase
      Spine Spine_dum1 Spine_dum2 Spine_dum3
      Spine_dum1 RightShoulder
      Spine_dum2 LeftShoulder
      Spine_dum3 Head
      RightShoulder RightArm
      RightArm RightForeArm
      RightForeArm RightHand
      RightHand RightHand_dum1 RightHand_dum2
      RightHand_dum2 RightHandThumb1
      LeftShoulder LeftArm
      LeftArm LeftForeArm
      LeftForeArm LeftHand
      LeftHand LeftHand_dum1 LeftHand_dum2
      LeftHand_dum2 LeftHandThumb1
   end

# File created by Blade
# Date/Time:  Wed Jan 21 18:40:08 2015
# Frame Rate: 120.000 fps
#------------------------------------------------------
:FULLY-SPECIFIED
:DEGREES
691
root 2.705234 28.958685 -9.173382 78.330302 -15.536349 34.641989
RightUpLeg -108.733137 -62.627935 10.068465
RightLeg -5.859244 -0.000000 0.000000
RightFoot 6.435595 -2.151146 48.822097
RightToeBase 19.021602 -0.000000 -0.000000
LeftUpLeg -74.877181 -9.410879 -25.784056
LeftLeg -6.715636 -0.000000 0.000000
LeftFoot 4.348747 8.345859 -21.781237
LeftToeBase 8.997076 -0.000000 -0.000000
Spine -32.999783 39.343117 8.869094
RightShoulder -18.230528 29.107203 -41.195750
RightArm 9.353749 -12.282753 35.623725
RightForeArm 5.241561 -0.000000 0.123160
RightHand 21.750579 0.000000 -18.282318
RightHandThumb1 -24.326973 -0.000000 -32.862282
LeftShoulder -21.320712 10.782337 43.404026
LeftArm -1.510440 -5.676841 -60.459416
LeftForeArm 9.189000 -0.000000 -6.234170
LeftHand -25.731761 -0.000000 6.381556
LeftHandThumb1 -26.253704 0.000000 33.147579
Head -42.260708 -11.390566 13.605399
692
root 2.713703 28.954358 -9.168291 78.356603 -15.643501 34.703758
RightUpLeg -108.972612 -62.643112 10.201932
RightLeg -5.888998 -0.000000 0.000000
RightFoot 6.483401 -2.152124 48.882201
RightToeBase 19.021231 -0.000000 -0.000000
LeftUpLeg -74.860559 -9.470095 -25.828198
LeftLeg -6.768014 -0.000000 0.000000
LeftFoot 4.317587 8.356008 -21.855994
LeftToeBase 8.987778 -0.000000 -0.000000
Spine -32.900055 39.249314 9.019309
RightShoulder -18.020293 29.221094 -41.086072
RightArm 9.388231 -12.242121 35.427395
RightForeArm 5.166698 -0.000000 0.199821
RightHand 21.893121 0.000000 -18.632424
RightHandThumb1 -24.326973 -0.000000 -32.862282
LeftShoulder -21.315419 10.811351 43.386714
LeftArm -1.470069 -5.666210 -60.487381
LeftForeArm 9.289902 0.000000 -6.189027
LeftHand -25.682436 -0.000000 6.385740
LeftHandThumb1 -26.253704 0.000000 33.147579
Head -42.331561 -12.126073 14.259139
693
root 2.720880 28.950596 -9.163182 78.405124 -15.762311 34.759866
RightUpLeg -109.315805 -62.635949 10.420891
RightLeg -5.905079 -0.000000 0.000000
RightFoot 6.527285 -2.119547 48.675658
RightToeBase 19.157522 -0.000000 -0.000000
LeftUpLeg -74.866037 -9.543823 -25.804054
LeftLeg -6.843547 -0.000000 0.000000
LeftFoot 4.278757 8.436769 -21.932288
LeftToeBase 8.955835 -0.000000 -0.000000
Spine -32.860611 39.227442 9.067849
RightShoulder -17.923351 29.252204 -41.010818
RightArm 9.451823 -12.141654 35.242148
RightForeArm 5.074501 -0.000000 0.311958
RightHand 21.964481 -0.000000 -18.675211
RightHandThumb1 -24.326973 -0.000000 -32.862282
LeftShoulder -21.291820 10.774468 43.394634
LeftArm -1.390879 -5.559357 -60.506313
LeftForeArm 9.100762 -0.000000 -6.188252
LeftHand -25.504428 -0.000000 6.301853
LeftHandThumb1 -26.253704 0.000000 33.147579
Head -42.477574 -12.939156 15.002963
694
root 2.725167 28.946951 -9.159969 78.484014 -15.920801 34.811425
RightUpLeg -109.640265 -62.621871 10.546005
RightLeg -5.892216 -0.000000 0.000000
RightFoot 6.546760 -2.112433 48.574958
RightToeBase 19.174891 -0.000000 -0.000000
LeftUpLeg -74.910989 -9.598205 -25.869542
LeftLeg -6.886990 -0.000000 0.000000
LeftFoot 4.269283 8.439259 -21.962504
LeftToeBase 8.933438 -0.000000 -0.000000
Spine -32.845659 39.200430 9.055555
RightShoulder -17.874286 29.411370 -41.003504
RightArm 9.484754 -12.252070 35.121983
RightForeArm 5.088571 -0.000000 0.346234
RightHand 22.143288 0.000000 -18.949507
RightHandThumb1 -24.326973 -0.000000 -32.862282
LeftShoulder -21.297987 10.780478 43.352253
LeftArm -1.251665 -5.518530 -60.520722
LeftForeArm 9.132975 -0.000000 -6.177075
LeftHand -25.530271 -0.000000 6.334795
LeftHandThumb1 -26.253704 0.000000 33.147579
Head -42.629507 -13.746637 15.773943
695
root 2.729369 28.944152 -9.159429 78.563723 -16.086761 34.855838
RightUpLeg -109.913535 -62.609256 10.587269
RightLeg -5.851540 -0.000000 0.000000
RightFoot 6.541045 -2.125313 48.581653
RightToeBase 19.189873 -0.000000 -0.000000
LeftUpLeg -74.969344 -9.649719 -25.950782
LeftLeg -6.910888 -0.000000 0.000000
LeftFoot 4.214572 8.461185 -22.032634
LeftToeBase 8.956134 -0.000000 -0.000000
Spine -32.830660 39.189234 9.009206
RightShoulder -17.847073 29.438513 -40.968427
RightArm 9.589032 -12.247320 35.002321
RightForeArm 5.096362 -0.000000 0.411892
RightHand 22.245590 -0.000000 -19.286274
RightHandThumb1 -24.326973 -0.000000 -32.862282
LeftShoulder -21.302698 10.741961 43.371742
LeftArm -1.154318 -5.531760 -60.548240
LeftForeArm 8.973650 -0.000000 -6.136195
LeftHand -25.422997 0.000000 6.179676
LeftHandThumb1 -26.253704 0.000000 33.147579
Head -42.834585 -14.550906 16.601743
